<svg version="1.1" class="Capa_1" xmlns="http://www.w3.org/2000/svg"
  xmlns:xlink="http://www.w3.org/1999/xlink" x="0px" y="0px"
  viewBox="0 0 512.002 512.002" style="enable-background:new 0 0 512.002 512.002;"
  xml:space="preserve">
  <g>
    <g>
      <path d="M159.601,152.633H15c-8.284,0-15,6.716-15,15s6.716,15,15,15h144.601c8.284,0,15-6.716,15-15
        S167.885,152.633,159.601,152.633z" />
    </g>
  </g>
  <g>
    <g>
      <path d="M159.601,281.167H15c-8.284,0-15,6.716-15,15s6.716,15,15,15h144.601c8.284,0,15-6.716,15-15
        S167.885,281.167,159.601,281.167z" />
    </g>
  </g>
  <g>
    <g>
      <path d="M363.007,381.96c-5.858-5.857-15.356-5.857-21.213,0.001l-53.66,53.66l-21.526-21.527
        c-5.856-5.858-15.354-5.858-21.213-0.001c-5.858,5.858-5.858,15.355,0,21.213l32.133,32.134c2.813,2.813,6.628,4.394,10.606,4.394
        c3.979,0,7.794-1.581,10.606-4.394l64.267-64.267C368.865,397.315,368.865,387.818,363.007,381.96z" />
    </g>
  </g>
  <g>
    <g>
      <path d="M159.601,409.701H15c-8.284,0-15,6.716-15,15s6.716,15,15,15h144.601c8.284,0,15-6.716,15-15
        S167.885,409.701,159.601,409.701z" />
    </g>
  </g>
  <g>
    <g>
      <path d="M507.607,113.42l-68.858-68.859c-2.813-2.813-6.628-4.394-10.606-4.394c-3.979,0-7.794,1.581-10.607,4.394l-68.854,68.859
        c-0.002,0.002-0.003,0.004-0.005,0.005l-103.281,103.28c-2.813,2.813-4.393,6.628-4.393,10.606v68.855c0,8.284,6.716,15,15,15
        h68.857c3.979,0,7.794-1.581,10.606-4.394l103.279-103.28c0.002-0.002,0.003-0.003,0.005-0.005l68.858-68.855
        c2.814-2.813,4.394-6.628,4.394-10.607C512.001,120.048,510.421,116.233,507.607,113.42z M318.646,281.167h-47.645v-47.642
        l88.287-88.285l47.642,47.642L318.646,281.167z M428.143,171.669l-9.082-9.082l-38.559-38.561l47.642-47.645l47.645,47.645
        L428.143,171.669z" />
    </g>
  </g>

</svg>
