<svg version="1.1" class="Capa_1" xmlns="http://www.w3.org/2000/svg"
  xmlns:xlink="http://www.w3.org/1999/xlink" x="0px" y="0px" viewBox="0 0 512 512"
  style="enable-background:new 0 0 512 512;" xml:space="preserve">
  <g>
    <g>
      <path d="M467,0H45C20.187,0,0,20.187,0,45v362c0,24.813,20.187,45,45,45h135v30h-45c-8.284,0-15,6.716-15,15s6.716,15,15,15h242
          c8.284,0,15-6.716,15-15s-6.716-15-15-15h-45v-30h135c24.813,0,45-20.187,45-45V45C512,20.187,491.813,0,467,0z M302,482h-92v-30
          h92V482z M482,407c0,8.271-6.729,15-15,15H45c-8.271,0-15-6.729-15-15v-15h452V407z M482,362H30V45c0-8.271,6.729-15,15-15h422
          c8.271,0,15,6.729,15,15V362z" />
    </g>
  </g>
  <g>
    <g>
      <path
        d="M347,90h-8.667c-36.52,0-57.42-16.419-74.013-27.481c-5.038-3.359-11.603-3.359-16.641,0
          C231.684,73.183,210.571,90,173.667,90H165c-8.284,0-15,6.716-15,15v93.509c0,58.352,35.874,110.927,101.257,132.721
          c1.539,0.513,3.141,0.77,4.743,0.77s3.204-0.257,4.744-0.77C325.357,309.692,362,257.72,362,198.509V105
          C362,96.716,355.284,90,347,90z M241,294.539c-38.563-19.584-61-54.288-61-96.031v-78.655c21.448-0.995,42.61-7.021,61-17.312
          V294.539z M332,198.509c0,41.742-22.437,76.446-61,96.031V102.541c18.39,10.291,39.552,16.317,61,17.312V198.509z" />
    </g>
  </g>
  <g>
    <g>
      <circle cx="377" cy="317" r="15" />
    </g>
  </g>
  <g>
    <g>
      <circle cx="437" cy="317" r="15" />
    </g>
  </g>
</svg>
