<svg xmlns="http://www.w3.org/2000/svg" height="48" width="48" viewBox="0 0 60 60"><path d="M18 26c-2.206 0-4 1.794-4 4s1.794 4 4 4 4-1.794 4-4-1.794-4-4-4zm0 6c-1.103 0-2-.897-2-2s.897-2 2-2 2 .897 2 2-.897 2-2 2zM30 26c-2.206 0-4 1.794-4 4s1.794 4 4 4 4-1.794 4-4-1.794-4-4-4zm0 6c-1.103 0-2-.897-2-2s.897-2 2-2 2 .897 2 2-.897 2-2 2zM46 30c0-2.206-1.794-4-4-4s-4 1.794-4 4 1.794 4 4 4 4-1.794 4-4zm-4 2c-1.103 0-2-.897-2-2s.897-2 2-2 2 .897 2 2-.897 2-2 2z"/><path d="M2.414 30l13.293-13.293a.999.999 0 10-1.414-1.414l-14 14a.999.999 0 000 1.414l14 14a.997.997 0 001.414 0 .999.999 0 000-1.414L2.414 30zM59.707 29.293l-14-14a.999.999 0 10-1.414 1.414L57.586 30 44.293 43.293a.999.999 0 101.414 1.414l14-14a.999.999 0 000-1.414z"/></svg>
