<svg xmlns="http://www.w3.org/2000/svg" height="50" viewBox="0 0 300 300" width="50"><path d="M206 68a17.894 17.894 0 00-10 3.044V66c0-9.925-8.075-18-18-18a17.885 17.885 0 00-10.238 3.214C166.416 42.61 158.975 36 150 36s-16.416 6.61-17.762 15.214A17.885 17.885 0 00122 48c-9.925 0-18 8.075-18 18v53.08A17.81 17.81 0 0093.944 116C84.05 116 76 124.05 76 133.944v73.087c0 14.59 5.682 28.308 15.999 38.625l1.885 1.885C104.498 258.155 118.609 264 133.62 264h39.632C201.234 264 224 241.234 224 213.252V86c0-9.925-8.075-18-18-18zm10 145.252C216 236.823 196.823 256 173.252 256H133.62c-12.873 0-24.976-5.013-34.079-14.116l-1.885-1.885C88.85 231.193 84 219.485 84 207.031v-73.087c0-5.483 4.461-9.944 9.944-9.944a9.871 9.871 0 017.059 2.941 9.873 9.873 0 012.884 7.083 3.94 3.94 0 00.113.933V176c0 1.061.421 2.078 1.171 2.829l9.858 9.858C123.394 197.05 128 208.171 128 220a4 4 0 008 0c0-13.966-5.438-27.095-15.313-36.971L112 174.343V66c0-5.514 4.486-10 10-10s10 4.486 10 10v78a4 4 0 008 0V54c0-5.514 4.486-10 10-10s10 4.486 10 10v92a4 4 0 008 0V66c0-5.514 4.486-10 10-10s10 4.486 10 10v18c0 .229.03.45.067.669-.032.441-.067.882-.067 1.331v56.958c0 8.746 3.2 17.163 9.01 23.699a4 4 0 005.979-5.315 27.643 27.643 0 01-6.99-18.384V86c0-5.514 4.486-10 10-10s10 4.486 10 10v127.252z"/></svg>
