<svg xmlns="http://www.w3.org/2000/svg" height="48" viewBox="0 0 512 512" width="48"><path d="M423.153 206.585h-1.687v-41.221c0-44.006-17.26-85.488-48.6-116.805C341.529 17.245 300.02 0 255.985 0c-44.022 0-85.522 17.246-116.856 48.561-31.338 31.317-48.596 72.799-48.596 116.804v41.221h-1.687c-18.388 0-33.347 14.951-33.347 33.329v238.729C55.5 497.036 70.459 512 88.847 512h72.166c5.522 0 10-4.478 10-10s-4.478-10-10-10H88.847c-7.359 0-13.347-5.992-13.347-13.357v-50.858h48.096c5.522 0 10-4.478 10-10s-4.478-10-10-10H75.5v-38.506h48.096c5.522 0 10-4.478 10-10s-4.478-10-10-10H75.5v-38.478h48.096c5.522 0 10-4.478 10-10s-4.478-10-10-10H75.5v-50.887c0-7.35 5.987-13.329 13.347-13.329h334.307c7.359 0 13.347 5.979 13.347 13.329v50.887h-48.124c-5.522 0-10 4.478-10 10s4.478 10 10 10H436.5v38.478h-48.124c-5.522 0-10 4.478-10 10s4.478 10 10 10H436.5v38.506h-48.124c-5.522 0-10 4.478-10 10s4.478 10 10 10H436.5v50.858c0 7.365-5.987 13.357-13.347 13.357H250.908c-5.522 0-10 4.478-10 10s4.478 10 10 10h172.245c18.388 0 33.347-14.964 33.347-33.357V239.914c0-18.378-14.959-33.329-33.347-33.329zm-312.62-41.221C110.533 85.21 175.783 20 255.985 20c80.219 0 145.481 65.21 145.481 145.364v41.221h-46.039v-41.221c0-26.39-10.388-51.304-29.249-70.151-18.859-18.845-43.788-29.224-70.193-29.224-26.393 0-51.313 10.379-70.168 29.225-18.859 18.85-29.245 43.763-29.245 70.15v41.221h-46.039zm224.895 41.221H176.572v-41.221c0-43.768 35.625-79.375 79.413-79.375 43.805 0 79.442 35.607 79.442 79.375v41.221z"/><path d="M271.177 466.455c27.111-16.159 68.777-62.636 78.766-93.875 1.604-5.077 1.566-8.255 1.527-11.62-.007-.543-.049-56.807-.05-57.853-.006-9.653-2.098-13.118-10.655-17.654-.921-.488-80.644-36.956-80.644-36.956a10.001 10.001 0 00-8.273.001s-79.694 36.469-80.615 36.957c-8.545 4.528-10.64 7.989-10.671 17.635-.003 1.044-.046 3.923-.046 4.004 0 0-.007 53.306-.013 53.842-.039 3.389-.075 6.59 1.565 11.678 9.978 31.206 51.644 77.683 78.743 93.835 5.104 3.052 10.067 4.535 15.174 4.535 5.055-.001 10.17-1.527 15.192-4.529zm-90.066-99.956c-.647-2.008-.642-2.581-.61-5.335.008-.606.057-56.877.061-58.01v-.009l.036-.02c.936-.495 75.389-34.54 75.389-34.54s74.478 34.043 75.412 34.538l.021.012c.001 1.135.044 57.442.051 58.058.031 2.699.039 3.34-.59 5.33-8.354 26.129-46.485 68.77-69.956 82.759-1.914 1.145-3.53 1.701-4.939 1.701-1.39 0-2.996-.557-4.922-1.708-23.46-13.982-61.591-56.623-69.953-82.776zM205.946 492c-5.522 0-10 4.478-10 10s4.478 10 10 10h.057c5.522 0 9.972-4.478 9.972-10s-4.506-10-10.029-10z"/><path d="M300.582 323.49c-3.954-3.857-10.286-3.776-14.141.178l-42.562 43.647-13.774-13.708c-3.914-3.896-10.245-3.883-14.142.034-3.896 3.914-3.881 10.246.034 14.142l20.935 20.835a9.995 9.995 0 007.054 2.912h.075a10 10 0 007.084-3.019l49.614-50.881c3.857-3.953 3.777-10.284-.177-14.14z"/></svg>
