<svg version="1.1" id="Capa_2" xmlns="http://www.w3.org/2000/svg"
  xmlns:xlink="http://www.w3.org/1999/xlink" x="0px" y="0px" viewBox="0 0 512 512"
  style="enable-background:new 0 0 512 512;" xml:space="preserve" fill="#fff">
  <g>
    <g>
      <path
        d="M399.5,31.533c-20.877,0-39.001,9.513-52.5,27.532c-13.499-18.018-31.623-27.532-52.5-27.532
        c-39.008,0-67.5,32.066-67.5,71.364c0,20.371,7.885,39.044,24.813,58.764c19.404,22.603,49.565,45.525,85.425,76.261
        c5.618,4.816,13.906,4.814,19.523,0c35.804-30.689,66.01-53.644,85.424-76.26c16.93-19.72,24.815-38.394,24.815-58.765
        C467,63.609,438.52,31.533,399.5,31.533z M364.632,192.062c-5.719,4.774-11.565,9.655-17.632,14.779
        c-6.066-5.125-11.914-10.006-17.634-14.781C284.238,154.389,257,131.652,257,102.897c0-23.581,16.121-41.364,37.5-41.364
        c27.761,0,37.613,32.533,38.071,34.101c1.832,6.448,7.712,10.934,14.419,10.934c6.727,0,12.621-4.444,14.435-10.921
        c0.405-1.393,10.234-34.113,38.075-34.113c21.379,0,37.5,17.782,37.5,41.364C437,131.653,409.761,154.392,364.632,192.062z" />
    </g>
  </g>
  <g>
    <g>
      <path d="M434.068,284.799l-44.087,47.328c-5.698-18.32-22.81-31.66-42.981-31.66h-78.68c-6.902,0-9.951-3.777-16.955-9.939
        c-22.593-19.882-52.688-29.121-82.572-25.344c-25.923,3.276-48.951,15.665-66.067,35.283H15c-8.284,0-15,6.716-15,15v150
        c0,8.284,6.716,15,15,15c10.121,0,327.334,0,332,0c32.874,0,64.275-15.701,84-42l72.014-96.017
        c5.879-7.837,8.986-17.168,8.986-26.983C512,274.61,461.738,255.095,434.068,284.799z M92,450.467H30v-120h62V450.467z
          M479.015,324.449L407,420.467c-14.089,18.785-36.519,30-60,30H122V324.275c12.574-16.413,30.358-26.777,50.554-29.329
        c21.351-2.699,42.854,3.9,58.993,18.103l7.045,6.199c8.22,7.234,18.778,11.218,29.729,11.218H347c8.271,0,15,6.729,15,15
        s-6.729,15-15,15h-91.279c-8.284,0-15,6.716-15,15s6.716,15,15,15h101.333c12.444,0,24.446-5.222,32.928-14.327l66.038-70.892
        c2.872-3.083,6.771-4.78,10.98-4.78C479.357,300.467,486.374,314.637,479.015,324.449z" />
    </g>
  </g>
</svg>
